<mxfile host="65bd71144e">
    <diagram id="lu7M6O9MtYW13m0v7hSQ" name="Page-1">
        <mxGraphModel dx="721" dy="-507" grid="1" gridSize="10" guides="1" tooltips="1" connect="1" arrows="1" fold="1" page="1" pageScale="1" pageWidth="827" pageHeight="1169" math="0" shadow="0">
            <root>
                <mxCell id="0"/>
                <mxCell id="1" parent="0"/>
                <mxCell id="2" value="&lt;p style=&quot;margin:0px;margin-top:4px;text-align:center;&quot;&gt;&lt;b&gt;Streaming&lt;/b&gt;&lt;/p&gt;&lt;hr size=&quot;1&quot; style=&quot;border-style:solid;&quot;&gt;&lt;p style=&quot;margin:0px;margin-left:4px;&quot;&gt;contenido: vector&amp;lt;Contenido*&amp;gt;&lt;/p&gt;&lt;hr size=&quot;1&quot; style=&quot;border-style:solid;&quot;&gt;&lt;p style=&quot;margin:0px;margin-left:4px;&quot;&gt;+cargaArchivo(): void&lt;/p&gt;&lt;p style=&quot;margin:0px;margin-left:4px;&quot;&gt;&lt;span style=&quot;background-color: rgb(251, 251, 251);&quot;&gt;+&amp;nbsp;&lt;/span&gt;&lt;span style=&quot;background-color: rgb(255, 255, 255); color: rgb(0, 0, 0); font-size: 11px; text-wrap-mode: nowrap;&quot;&gt;agregarContenido(idCont,nombreCont,generos,calificacion,&lt;/span&gt;&lt;/p&gt;&lt;p style=&quot;margin:0px;margin-left:4px;&quot;&gt;&lt;span style=&quot;background-color: rgb(255, 255, 255); color: rgb(0, 0, 0); font-size: 11px; text-wrap-mode: nowrap;&quot;&gt;fecha_estreno,nombreEpi,&amp;nbsp;&lt;/span&gt;&lt;span style=&quot;font-size: 11px; text-wrap-mode: nowrap; background-color: transparent;&quot;&gt;temporada_pertenece,num_episodio,&amp;nbsp;&lt;/span&gt;&lt;/p&gt;&lt;p style=&quot;margin:0px;margin-left:4px;&quot;&gt;&lt;span style=&quot;font-size: 11px; text-wrap-mode: nowrap; background-color: transparent;&quot;&gt;idEpi): void&lt;/span&gt;&lt;/p&gt;&lt;p style=&quot;margin:0px;margin-left:4px;&quot;&gt;+mostrarVideos(): void&lt;/p&gt;&lt;p style=&quot;margin:0px;margin-left:4px;&quot;&gt;+mostrarVideosPorCalificacion(int): void&amp;nbsp;&lt;/p&gt;&lt;p style=&quot;margin:0px;margin-left:4px;&quot;&gt;+mostrarVideosPorGenero(string): void&amp;nbsp;&lt;/p&gt;&lt;p style=&quot;margin:0px;margin-left:4px;&quot;&gt;+mostrarPeliculasPorCalificacion(int): void&lt;/p&gt;&lt;p style=&quot;margin:0px;margin-left:4px;&quot;&gt;+mostrarEpisodiosDeSerie(string): void&lt;/p&gt;&lt;p style=&quot;margin:0px;margin-left:4px;&quot;&gt;+calificarVidep(string, float): void&lt;/p&gt;" style="verticalAlign=top;align=left;overflow=fill;html=1;whiteSpace=wrap;" parent="1" vertex="1">
                    <mxGeometry x="1099.91" y="1180" width="330" height="250" as="geometry"/>
                </mxCell>
                <mxCell id="3" value="&lt;p style=&quot;margin:0px;margin-top:4px;text-align:center;&quot;&gt;&lt;b&gt;Serie&lt;/b&gt;&lt;/p&gt;&lt;hr size=&quot;1&quot; style=&quot;border-style:solid;&quot;&gt;&lt;p style=&quot;margin: 0px 0px 0px 4px;&quot;&gt;- id: string&lt;/p&gt;&lt;p style=&quot;margin: 0px 0px 0px 4px;&quot;&gt;- nombre: string&lt;/p&gt;&amp;nbsp;- episodios: vector&amp;lt;Episodio*&amp;gt;&lt;div&gt;&lt;p style=&quot;margin: 0px 0px 0px 4px;&quot;&gt;- genero: vector&amp;lt;string&amp;gt;&lt;/p&gt;&lt;p style=&quot;margin: 0px 0px 0px 4px;&quot;&gt;&lt;span style=&quot;color: rgb(63, 63, 63);&quot;&gt;&lt;/span&gt;&lt;/p&gt;&lt;hr size=&quot;1&quot; style=&quot;border-style:solid;&quot;&gt;&lt;p style=&quot;margin:0px;margin-left:4px;&quot;&gt;+Serie()&lt;/p&gt;&lt;p style=&quot;margin:0px;margin-left:4px;&quot;&gt;+Serie(string id, string nombre, vector&amp;lt;string&amp;gt; genero)&lt;/p&gt;&lt;p style=&quot;margin:0px;margin-left:4px;&quot;&gt;+buscarPorCalificacion(int): void&lt;/p&gt;&lt;p style=&quot;margin:0px;margin-left:4px;&quot;&gt;+buscarPorGenero(string): void&lt;/p&gt;&lt;p style=&quot;margin: 0px; font-variant-numeric: normal; font-variant-east-asian: normal; font-variant-alternates: normal; font-size-adjust: none; font-kerning: auto; font-optical-sizing: auto; font-feature-settings: normal; font-variation-settings: normal; font-variant-position: normal; font-variant-emoji: normal; font-stretch: normal; line-height: normal; color: rgb(0, 0, 0); -webkit-text-stroke-color: rgb(0, 0, 0); background-color: rgba(255, 255, 255, 0);&quot; class=&quot;p1&quot;&gt;&lt;span style=&quot;font-variant-numeric: normal; font-variant-east-asian: normal; font-variant-alternates: normal; font-variant-position: normal; font-variant-emoji: normal; font-size-adjust: none; font-optical-sizing: auto; font-feature-settings: normal; font-variation-settings: normal; font-stretch: normal; font-size: 11px; line-height: normal; font-kerning: none;&quot; class=&quot;s1&quot;&gt;&amp;nbsp;+agregarEpisodio(&lt;/span&gt;&lt;span style=&quot;color: rgb(63, 63, 63); background-color: transparent;&quot;&gt;string id, string nombre, string fecha_estreno, int duracion, float calificacion, int numero_episodio, int temporada_que_pertenece&lt;/span&gt;&lt;span style=&quot;font-size: 11px; background-color: light-dark(rgba(255, 255, 255, 0), rgb(18, 18, 18)); -webkit-text-stroke-color: light-dark(rgb(0, 0, 0), rgb(237, 237, 237));&quot;&gt;):void&lt;/span&gt;&lt;/p&gt;&lt;p style=&quot;margin: 0px 0px 0px 4px; text-indent: -4px; font-variant-numeric: normal; font-variant-east-asian: normal; font-variant-alternates: normal; font-size-adjust: none; font-kerning: auto; font-optical-sizing: auto; font-feature-settings: normal; font-variation-settings: normal; font-variant-position: normal; font-variant-emoji: normal; font-stretch: normal; line-height: normal; color: rgb(0, 0, 0); -webkit-text-stroke-color: rgb(0, 0, 0); background-color: rgba(255, 255, 255, 0);&quot; class=&quot;p2&quot;&gt;&lt;span style=&quot;font-kerning: none;&quot; class=&quot;s3&quot;&gt;+mostrarEpisodios(): void&lt;/span&gt;&lt;/p&gt;&lt;p style=&quot;margin: 0px 0px 0px 4px; text-indent: -4px; font-variant-numeric: normal; font-variant-east-asian: normal; font-variant-alternates: normal; font-size-adjust: none; font-kerning: auto; font-optical-sizing: auto; font-feature-settings: normal; font-variation-settings: normal; font-variant-position: normal; font-variant-emoji: normal; font-stretch: normal; font-size: 11px; line-height: normal; color: rgb(0, 0, 0); -webkit-text-stroke-color: rgb(0, 0, 0); background-color: rgba(255, 255, 255, 0);&quot; class=&quot;p3&quot;&gt;&lt;span style=&quot;font-variant-numeric: normal; font-variant-east-asian: normal; font-variant-alternates: normal; font-variant-position: normal; font-variant-emoji: normal; font-size-adjust: none; font-optical-sizing: auto; font-feature-settings: normal; font-variation-settings: normal; font-stretch: normal; font-size: 12px; line-height: normal; font-kerning: none; -webkit-text-stroke-color: rgb(48, 48, 48);&quot; class=&quot;s4&quot;&gt;+&lt;/span&gt;&lt;span style=&quot;font-kerning: none;&quot; class=&quot;s3&quot;&gt;buscarPorNombre (string nom): void&amp;nbsp;&lt;/span&gt;&lt;/p&gt;&lt;p style=&quot;margin:0px;margin-left:4px;&quot;&gt;&lt;span style=&quot;background-color: transparent;&quot;&gt;+imprimir(): void&lt;/span&gt;&lt;/p&gt;&lt;/div&gt;" style="verticalAlign=top;align=left;overflow=fill;html=1;whiteSpace=wrap;shadow=1;" parent="1" vertex="1">
                    <mxGeometry x="1306.3200000000002" y="1580" width="323.09" height="260" as="geometry"/>
                </mxCell>
                <mxCell id="4" value="&lt;p style=&quot;margin:0px;margin-top:4px;text-align:center;&quot;&gt;&lt;b&gt;Pelicula&lt;/b&gt;&lt;/p&gt;&lt;hr size=&quot;1&quot; style=&quot;border-style:solid;&quot;&gt;&lt;p style=&quot;margin: 0px 0px 0px 4px;&quot;&gt;- genero: vector&amp;lt;string&amp;gt;&lt;/p&gt;&lt;div&gt;&lt;br&gt;&lt;/div&gt;&lt;hr size=&quot;1&quot; style=&quot;border-style:solid;&quot;&gt;&lt;p style=&quot;margin:0px;margin-left:4px;&quot;&gt;&lt;span style=&quot;color: light-dark(rgb(0, 0, 0), rgb(255, 255, 255));&quot;&gt;&lt;/span&gt;&lt;/p&gt;&lt;p style=&quot;margin:0px;margin-left:4px;&quot;&gt;+Pelicula()&lt;/p&gt;&lt;p style=&quot;margin:0px;margin-left:4px;&quot;&gt;+Pelicula(string id, string nombre, string fecha_estreno, int duracion, float calificacion, vector&amp;lt;string&amp;gt; genero)&lt;/p&gt;&lt;p style=&quot;margin:0px;margin-left:4px;&quot;&gt;&lt;span style=&quot;color: light-dark(rgb(0, 0, 0), rgb(255, 255, 255));&quot;&gt;+buscarPorCalificacion(int): void&lt;/span&gt;&lt;/p&gt;&lt;div&gt;&amp;nbsp;+buscarPorGenero(string): void&lt;/div&gt;&lt;div&gt;&lt;p style=&quot;margin: 0px 0px 0px 4px;&quot;&gt;&lt;span style=&quot;-webkit-text-stroke-color: rgb(0, 0, 0); font-variant-numeric: normal; font-variant-east-asian: normal; font-variant-alternates: normal; font-variant-position: normal; font-variant-emoji: normal; font-size-adjust: none; font-optical-sizing: auto; font-feature-settings: normal; font-variation-settings: normal; font-stretch: normal; line-height: normal; font-kerning: none; background-color: rgb(250, 250, 250);&quot; class=&quot;s1&quot;&gt;+&lt;/span&gt;&lt;span style=&quot;font-size: 11px; -webkit-text-stroke-color: rgb(0, 0, 0); font-kerning: none;&quot; class=&quot;s2&quot;&gt;buscarPorNombre (string nom): void&lt;/span&gt;&lt;span style=&quot;background-color: transparent;&quot;&gt;&amp;nbsp;&lt;/span&gt;&lt;/p&gt;&lt;p style=&quot;margin: 0px 0px 0px 4px;&quot;&gt;&lt;span style=&quot;background-color: transparent;&quot;&gt;+imprimir(): void&lt;/span&gt;&lt;/p&gt;&lt;/div&gt;" style="verticalAlign=top;align=left;overflow=fill;html=1;whiteSpace=wrap;shadow=1;" parent="1" vertex="1">
                    <mxGeometry x="896.41" y="2110" width="233.91" height="200" as="geometry"/>
                </mxCell>
                <mxCell id="5" value="&lt;p style=&quot;margin:0px;margin-top:4px;text-align:center;&quot;&gt;&lt;b&gt;Episodio&lt;/b&gt;&lt;/p&gt;&lt;hr size=&quot;1&quot; style=&quot;border-style:solid;&quot;&gt;&lt;p style=&quot;margin:0px;margin-left:4px;&quot;&gt;&lt;span style=&quot;background-color: transparent;&quot;&gt;- numero_episodio:int&lt;/span&gt;&lt;/p&gt;&lt;p style=&quot;margin:0px;margin-left:4px;&quot;&gt;- temporada_que pertenece:int&lt;/p&gt;&lt;p style=&quot;margin: 0px 0px 0px 4px;&quot;&gt;&lt;br&gt;&lt;/p&gt;&lt;hr size=&quot;1&quot; style=&quot;border-style:solid;&quot;&gt;&lt;p style=&quot;margin:0px;margin-left:4px;&quot;&gt;+Episodio()&lt;/p&gt;&lt;p style=&quot;margin:0px;margin-left:4px;&quot;&gt;+Episodio(string id, string nombre, string fecha_estreno, int duracion, float calificacion, int numero_episodio, int temporada_que_pertenece)&lt;/p&gt;&lt;p style=&quot;margin:0px;margin-left:4px;&quot;&gt;+buscarPorCalificacion(int): void&lt;/p&gt;&lt;p style=&quot;margin: 0px 0px 0px 4px;&quot;&gt;&lt;span style=&quot;-webkit-text-stroke-color: rgb(0, 0, 0); font-variant-numeric: normal; font-variant-east-asian: normal; font-variant-alternates: normal; font-variant-position: normal; font-variant-emoji: normal; font-size-adjust: none; font-optical-sizing: auto; font-feature-settings: normal; font-variation-settings: normal; font-stretch: normal; line-height: normal; font-kerning: none; background-color: rgb(250, 250, 250);&quot; class=&quot;s1&quot;&gt;+&lt;/span&gt;&lt;span style=&quot;font-size: 11px; -webkit-text-stroke-color: rgb(0, 0, 0); font-kerning: none;&quot; class=&quot;s2&quot;&gt;buscarPorNombre (string nom, float calificacion): void&lt;/span&gt;&lt;/p&gt;&lt;p style=&quot;margin: 0px 0px 0px 4px;&quot;&gt;&lt;span style=&quot;background-color: transparent;&quot;&gt;+imprimir(): void&lt;/span&gt;&lt;/p&gt;" style="verticalAlign=top;align=left;overflow=fill;html=1;whiteSpace=wrap;shadow=1;" parent="1" vertex="1">
                    <mxGeometry x="1328.28" y="1940" width="278.09" height="220" as="geometry"/>
                </mxCell>
                <mxCell id="8" value="" style="endArrow=diamondThin;endFill=1;endSize=24;html=1;edgeStyle=orthogonalEdgeStyle;" parent="1" source="16" target="2" edge="1">
                    <mxGeometry width="160" relative="1" as="geometry">
                        <mxPoint x="1111.91" y="1521" as="sourcePoint"/>
                        <mxPoint x="1347" y="1440" as="targetPoint"/>
                    </mxGeometry>
                </mxCell>
                <mxCell id="9" value="Tiene" style="edgeLabel;html=1;align=center;verticalAlign=middle;resizable=0;points=[];shadow=1;" parent="8" connectable="0" vertex="1">
                    <mxGeometry x="0.0138" y="1" relative="1" as="geometry">
                        <mxPoint as="offset"/>
                    </mxGeometry>
                </mxCell>
                <mxCell id="10" value="" style="endArrow=diamondThin;endFill=1;endSize=24;html=1;entryX=0.5;entryY=1;entryDx=0;entryDy=0;exitX=0.5;exitY=0;exitDx=0;exitDy=0;edgeStyle=orthogonalEdgeStyle;shadow=1;" parent="1" source="5" target="3" edge="1">
                    <mxGeometry width="160" relative="1" as="geometry">
                        <mxPoint x="1169.3200000000002" y="1990" as="sourcePoint"/>
                        <mxPoint x="1489.32" y="1830" as="targetPoint"/>
                    </mxGeometry>
                </mxCell>
                <mxCell id="11" value="Tiene" style="edgeLabel;html=1;align=center;verticalAlign=middle;resizable=0;points=[];shadow=1;" parent="10" connectable="0" vertex="1">
                    <mxGeometry x="-0.2389" y="-3" relative="1" as="geometry">
                        <mxPoint as="offset"/>
                    </mxGeometry>
                </mxCell>
                <mxCell id="12" value="&lt;p style=&quot;margin:0px;margin-top:4px;text-align:center;&quot;&gt;&lt;b&gt;Video&lt;/b&gt;&lt;/p&gt;&lt;hr size=&quot;1&quot; style=&quot;border-style:solid;&quot;&gt;&lt;p style=&quot;margin:0px;margin-left:4px;&quot;&gt;&lt;/p&gt;&lt;p style=&quot;margin: 0px 0px 0px 4px;&quot;&gt;# id: string&lt;/p&gt;&lt;p style=&quot;margin: 0px 0px 0px 4px;&quot;&gt;# nombre: string&lt;/p&gt;&lt;p style=&quot;margin: 0px 0px 0px 4px;&quot;&gt;&lt;span&gt;&lt;font style=&quot;color: light-dark(rgb(0, 0, 0), rgb(255, 255, 255));&quot;&gt;# fecha_estreno: string&lt;/font&gt;&lt;/span&gt;&lt;/p&gt;&lt;p style=&quot;margin: 0px 0px 0px 4px;&quot;&gt;&lt;span style=&quot;color: rgb(63, 63, 63);&quot;&gt;&lt;font style=&quot;color: light-dark(rgb(0, 0, 0), rgb(255, 255, 255));&quot;&gt;# duracion:float&lt;/font&gt;&lt;/span&gt;&lt;/p&gt;&lt;p style=&quot;margin: 0px 0px 0px 4px;&quot;&gt;&lt;span style=&quot;background-color: transparent;&quot;&gt;# calificacion: float&lt;/span&gt;&lt;/p&gt;&lt;div&gt;&amp;nbsp;+ Video()&lt;/div&gt;&lt;div&gt;&amp;nbsp;+&amp;nbsp;&lt;font face=&quot;Helvetica&quot; color=&quot;#000000&quot;&gt;&lt;span style=&quot;white-space: pre;&quot;&gt;Video&lt;/span&gt;&lt;span style=&quot;white-space: pre;&quot;&gt;(&lt;/span&gt;&lt;span style=&quot;white-space: pre;&quot;&gt;string&lt;/span&gt;&lt;span style=&quot;white-space: pre;&quot;&gt; &lt;/span&gt;&lt;span style=&quot;white-space: pre;&quot;&gt;id&lt;/span&gt;&lt;span style=&quot;white-space: pre;&quot;&gt;,&lt;/span&gt;&lt;span style=&quot;white-space: pre;&quot;&gt;string&lt;/span&gt;&lt;span style=&quot;white-space: pre;&quot;&gt; &lt;/span&gt;&lt;span style=&quot;white-space: pre;&quot;&gt;nombre&lt;/span&gt;&lt;span style=&quot;white-space: pre;&quot;&gt;,&lt;/span&gt;&lt;/font&gt;&lt;/div&gt;&lt;div&gt;&lt;font face=&quot;Helvetica&quot; color=&quot;#000000&quot;&gt;&lt;span style=&quot;white-space: pre;&quot;&gt;string&lt;/span&gt;&lt;span style=&quot;white-space: pre;&quot;&gt; &lt;/span&gt;&lt;span style=&quot;white-space: pre;&quot;&gt;fecha_estreno&lt;/span&gt;&lt;span style=&quot;white-space: pre;&quot;&gt;,&lt;/span&gt;&lt;span style=&quot;white-space: pre;&quot;&gt;int&lt;/span&gt;&lt;span style=&quot;white-space: pre;&quot;&gt; &lt;/span&gt;&lt;span style=&quot;white-space: pre;&quot;&gt;duracion&lt;/span&gt;&lt;span style=&quot;white-space: pre;&quot;&gt;,&lt;/span&gt;&lt;/font&gt;&lt;/div&gt;&lt;div&gt;&lt;font face=&quot;Helvetica&quot; color=&quot;#000000&quot;&gt;&lt;span style=&quot;white-space: pre;&quot;&gt;float&lt;/span&gt;&lt;span style=&quot;white-space: pre;&quot;&gt; &lt;/span&gt;&lt;span style=&quot;white-space: pre;&quot;&gt;calificacion&lt;/span&gt;&lt;span style=&quot;white-space: pre;&quot;&gt;)&lt;/span&gt;&lt;/font&gt;&lt;/div&gt;" style="verticalAlign=top;align=left;overflow=fill;html=1;whiteSpace=wrap;shadow=1;" parent="1" vertex="1">
                    <mxGeometry x="1018.41" y="1769" width="230" height="165" as="geometry"/>
                </mxCell>
                <mxCell id="13" value="Es un" style="endArrow=block;endSize=16;endFill=0;html=1;exitX=0.5;exitY=0;exitDx=0;exitDy=0;entryX=0.25;entryY=1;entryDx=0;entryDy=0;edgeStyle=orthogonalEdgeStyle;shadow=1;" parent="1" source="4" edge="1">
                    <mxGeometry x="-0.0017" width="160" relative="1" as="geometry">
                        <mxPoint x="1179.3200000000002" y="1720" as="sourcePoint"/>
                        <mxPoint x="1075.91" y="1935" as="targetPoint"/>
                        <mxPoint as="offset"/>
                    </mxGeometry>
                </mxCell>
                <mxCell id="14" value="Es un" style="endArrow=block;endSize=16;endFill=0;html=1;exitX=0;exitY=0.5;exitDx=0;exitDy=0;entryX=0.75;entryY=1;entryDx=0;entryDy=0;edgeStyle=orthogonalEdgeStyle;shadow=1;" parent="1" source="5" edge="1">
                    <mxGeometry x="-0.001" width="160" relative="1" as="geometry">
                        <mxPoint x="1012.3199999999998" y="1890" as="sourcePoint"/>
                        <mxPoint x="1190.91" y="1935" as="targetPoint"/>
                        <mxPoint as="offset"/>
                    </mxGeometry>
                </mxCell>
                <mxCell id="15" value="" style="line;strokeWidth=1;fillColor=none;align=left;verticalAlign=middle;spacingTop=-1;spacingLeft=3;spacingRight=3;rotatable=0;labelPosition=right;points=[];portConstraint=eastwest;strokeColor=inherit;shadow=1;" parent="1" vertex="1">
                    <mxGeometry x="1014.32" y="1869" width="234.09" height="8" as="geometry"/>
                </mxCell>
                <mxCell id="16" value="&lt;p style=&quot;margin:0px;margin-top:4px;text-align:center;&quot;&gt;&lt;b&gt;Contenido &amp;lt;&amp;lt;interface&amp;gt;&amp;gt;&lt;/b&gt;&lt;/p&gt;&lt;hr size=&quot;1&quot; style=&quot;border-style:solid;&quot;&gt;&lt;p style=&quot;margin: 0px 0px 0px 4px;&quot;&gt;&lt;br&gt;&lt;/p&gt;&lt;hr size=&quot;1&quot; style=&quot;border-style:solid;&quot;&gt;&lt;p style=&quot;margin:0px;margin-left:4px;&quot;&gt;&lt;span style=&quot;background-color: transparent; color: light-dark(rgb(0, 0, 0), rgb(255, 255, 255));&quot;&gt;&lt;/span&gt;&lt;/p&gt;&lt;p style=&quot;margin: 0px 0px 0px 4px;&quot;&gt;&lt;span style=&quot;background-color: light-dark(#ffffff, var(--ge-dark-color, #121212));&quot;&gt;+&lt;span style=&quot;font-size: 11px; text-align: center; text-wrap-mode: nowrap; color: light-dark(rgb(0, 0, 0), rgb(255, 255, 255));&quot;&gt;buscarPorNombre (string nom): void=0&lt;/span&gt;&lt;/span&gt;&lt;/p&gt;&lt;p style=&quot;margin:0px;margin-left:4px;&quot;&gt;&lt;span style=&quot;background-color: transparent; color: light-dark(rgb(0, 0, 0), rgb(255, 255, 255));&quot;&gt;+buscarPorCalificacion(int): void=0&lt;/span&gt;&lt;/p&gt;&lt;div&gt;&amp;nbsp;+buscarPorGenero(string): void=0&lt;/div&gt;&lt;div&gt;&amp;nbsp;+imprimir(): void=0&lt;/div&gt;" style="verticalAlign=top;align=left;overflow=fill;html=1;whiteSpace=wrap;shadow=1;" parent="1" vertex="1">
                    <mxGeometry x="929.41" y="1590" width="233.91" height="130" as="geometry"/>
                </mxCell>
                <mxCell id="17" value="Se comporta como" style="endArrow=block;endSize=16;endFill=0;html=1;exitX=0;exitY=0.5;exitDx=0;exitDy=0;edgeStyle=orthogonalEdgeStyle;dashed=1;dashPattern=8 8;shadow=1;" parent="1" source="3" target="16" edge="1">
                    <mxGeometry x="-0.001" width="160" relative="1" as="geometry">
                        <mxPoint x="1264.41" y="1839.5" as="sourcePoint"/>
                        <mxPoint x="1139.41" y="1784.5" as="targetPoint"/>
                        <mxPoint as="offset"/>
                    </mxGeometry>
                </mxCell>
                <mxCell id="18" value="Se comporta como" style="endArrow=block;endSize=16;endFill=0;html=1;exitX=0.25;exitY=0;exitDx=0;exitDy=0;edgeStyle=orthogonalEdgeStyle;dashed=1;dashPattern=8 8;shadow=1;" parent="1" source="4" target="16" edge="1">
                    <mxGeometry x="-0.001" width="160" relative="1" as="geometry">
                        <mxPoint x="1316.41" y="1720" as="sourcePoint"/>
                        <mxPoint x="959.41" y="1740" as="targetPoint"/>
                        <mxPoint as="offset"/>
                        <Array as="points">
                            <mxPoint x="955.41" y="1915"/>
                            <mxPoint x="959.41" y="1915"/>
                        </Array>
                    </mxGeometry>
                </mxCell>
            </root>
        </mxGraphModel>
    </diagram>
</mxfile>